<svg xmlns="http://www.w3.org/2000/svg" data-name="Layer 1" width="157.2" height="176"><rect id="backgroundrect" width="100%" height="100%" x="0" y="0" fill="none" stroke="none" class=""/><defs><style>.cls-1{fill:none;}.cls-2{fill:#eee;}.cls-3{fill:#ccc;}.cls-4{fill:#00b0c9;}</style></defs><title>notification</title><g class="currentLayer"><title>Layer 1</title><path class="cls-3" d="M104.6999992966652,69.79999947547913 a3.5700000000000003,3.5700000000000003 0 0 1 -3.31,-3.81 a12.36,12.36 0 0 0 -7.47,-12.31 a3.5700000000000003,3.5700000000000003 0 0 1 -2.08,-4.6 a3.5700000000000003,3.5700000000000003 0 0 1 4.6,-2.08 a19.42,19.42 0 0 1 12.07,19.49 a3.58,3.58 0 0 1 -3.56,3.3200000000000003 z" id="svg_3"/><path class="cls-3" d="M107.03999929666521,86.46999947547913 a3.58,3.58 0 0 1 -3.5700000000000003,-3.5700000000000003 v-1.55 a3.5700000000000003,3.5700000000000003 0 1 1 7.14,0 v1.55 A3.58,3.58 0 0 1 107.03999929666521,86.46999947547913 z" id="svg_4"/><path class="cls-3" d="M77.79999929666519,174.1899994754791 a22.55,22.55 0 0 1 -22.36,-18.55 l-0.3700000000000018,-1.94 l-2,-0.21000000000000021 c-27.14,-3 -42.7,-11 -42.7,-22 c0,-4.21 1.53,-7.92 5.11,-12.39 c0.7100000000000006,-0.8900000000000126 1.48,-1.79 2.67,-3.13 l1.36,-1.53 c0.55,-0.6100000000000046 1,-1.08 1.36,-1.55 c6.28,-7.25 8.620000000000001,-12.76 8.620000000000001,-20.33 V73.04999947547913 c0,-22.76 14.3,-41.88 35.59,-47.57 l2.38,-0.6400000000000126 l-1.46,-2 a13.68,13.68 0 0 1 -2.68,-8.14 a13.81,13.81 0 1 1 25.12,7.8900000000000015 l-1.42,2 l2.4,0.5800000000000006 c21.57,5.25 36.64,24.92 36.64,47.84 v19.47 c0,7.57 2.33,13.08 8.620000000000001,20.33 l1.35,1.54 l1.3800000000000001,1.54 c1.18,1.33 2,2.24 2.66,3.13 c3.58,4.48 5.11,8.18 5.11,12.39 c0,11 -15.56,19.08 -42.7,22 l-2,0.21000000000000021 l-0.3700000000000018,1.94 A22.55,22.55 0 0 1 77.79999929666519,174.1899994754791 zm-13.67,-15.81 a15.51,15.51 0 0 0 27.34,0 l2.09,-4.09 l-4.58,0.2 c-3.59,0.15000000000000024 -7.35,0.23 -11.17,0.23 s-7.58,-0.08000000000000022 -11.17,-0.23 l-4.58,-0.2 zM77.79999929666519,31.439999475479127 c-22.94,0 -40.9,18.28 -40.9,41.61 v19.47 c0,9.24 -2.67,16 -9.53,24.27 l-1.06,1.26 a56.64,56.64 0 0 0 -5.11,5.85 c-2.43,3 -3.42,5.22 -3.42,7.54 c0,5.5600000000000005 9.71,9.17 17.85,11.22 c11.35,2.8600000000000003 26.33,4.43 42.17,4.43 s30.81,-1.57 42.17,-4.43 c8.14,-2.05 17.85,-5.66 17.85,-11.22 c0,-2.3200000000000003 -1,-4.5 -3.42,-7.54 a57.28,57.28 0 0 0 -5.17,-5.92 l-1,-1.2 c-6.86,-8.23 -9.53,-15 -9.53,-24.28 V73.04999947547913 C118.68999929666518,49.71999947547913 100.7299992966652,31.439999475479127 77.79999929666519,31.439999475479127 zM77.1399992966652,6.799999475479126 a7.8900000000000015,7.8900000000000015 0 1 0 7.8900000000000015,7.8900000000000015 A7.9,7.9 0 0 0 77.1399992966652,6.799999475479126 z" id="svg_5"/><path class="cls-4" d="M16.79999929666519,59.61999947547912 a3.6500000000000004,3.6500000000000004 0 0 1 -3.6100000000000003,-3.68 c0,-0.7100000000000006 0.2900000000000003,-17.42 13.45,-28 a3.6,3.6 0 0 1 2.2800000000000002,-0.81 a3.6500000000000004,3.6500000000000004 0 0 1 2.29,6.49 c-10.5,8.45 -10.72,22.24 -10.73,22.38 a3.66,3.66 0 0 1 -3.6500000000000004,3.62 z" id="svg_7"/><path class="cls-4" d="M4.409999296665191,43.95999947547912 A3.6500000000000004,3.6500000000000004 0 0 1 0.799999296665192,40.27999947547913 a15.31,15.31 0 0 1 5.4,-11.22 a3.6,3.6 0 0 1 2.2800000000000002,-0.81 A3.6500000000000004,3.6500000000000004 0 0 1 10.799999296665192,34.74999947547913 a8.16,8.16 0 0 0 -2.67,5.6 a3.66,3.66 0 0 1 -3.6500000000000004,3.6100000000000003 z" id="svg_8"/><path class="cls-4" d="M4.409999296665191,43.95999947547912 A3.6500000000000004,3.6500000000000004 0 0 1 0.799999296665192,40.27999947547913 a15.31,15.31 0 0 1 5.4,-11.22 a3.6,3.6 0 0 1 2.2800000000000002,-0.81 A3.6500000000000004,3.6500000000000004 0 0 1 10.799999296665192,34.74999947547913 a8.16,8.16 0 0 0 -2.67,5.6 a3.66,3.66 0 0 1 -3.6500000000000004,3.6100000000000003 z" id="svg_1"/><path class="cls-4" d="M152.4099992966652,43.799999475479126 A3.6500000000000004,3.6500000000000004 0 0 1 148.7999992966652,40.43999947547913 A8.54,8.54 0 0 0 145.93999929666518,34.799999475479126 a3.6500000000000004,3.6500000000000004 0 1 1 4.48,-5.76 c5.11,4 5.6,10.23 5.6400000000000015,10.93 A3.6500000000000004,3.6500000000000004 0 0 1 152.6099992966652,43.799999475479126 z" id="svg_9"/><path class="cls-4" d="M138.95999929666522,59.61999947547912 a3.66,3.66 0 0 1 -3.6500000000000004,-3.6 c0,-0.14 -0.33000000000000645,-14 -10.72,-22.39 a3.6500000000000004,3.6500000000000004 0 1 1 4.57,-5.69 c13.14,10.56 13.44,27.29 13.45,28 a3.6500000000000004,3.6500000000000004 0 0 1 -3.62,3.68 z" id="svg_10"/></g></svg>