<?xml version="1.0" encoding="utf-8"?>
<!-- Generator: Adobe Illustrator 21.0.0, SVG Export Plug-In . SVG Version: 6.00 Build 0)  -->
<svg version="1.1" id="Layer_1" xmlns="http://www.w3.org/2000/svg" xmlns:xlink="http://www.w3.org/1999/xlink" x="0px" y="0px"
	 viewBox="0 0 33 33" style="enable-background:new 0 0 33 33;" xml:space="preserve">
<style type="text/css">
	.st0{filter:url(#Adobe_OpacityMaskFilter);}
	.st1{fill:#FFFFFF;}
	.st2{mask:url(#mask-2);}
	.st3{filter:url(#Adobe_OpacityMaskFilter_1_);}
	.st4{mask:url(#mask-4);fill:#87C93C;}
</style>
<title>SIcon/Activity</title>
<desc>Created with Sketch.</desc>
<g id="MTA-Component">
	<g id="SIcon_x2F_Activity">
		<g id="Clip-2">
		</g>
		<defs>
			<filter id="Adobe_OpacityMaskFilter" filterUnits="userSpaceOnUse" x="0" y="0" width="33" height="33">
				<feColorMatrix  type="matrix" values="1 0 0 0 0  0 1 0 0 0  0 0 1 0 0  0 0 0 1 0"/>
			</filter>
		</defs>
		<mask maskUnits="userSpaceOnUse" x="0" y="0" width="33" height="33" id="mask-2">
			<g class="st0">
				<polygon id="path-1" class="st1" points="33,0 33,33 0,33 0,0 				"/>
			</g>
		</mask>
		<g id="Page-1" class="st2">
			<g id="Group-3">
				<g id="Clip-2_1_">
				</g>
				<defs>
					<filter id="Adobe_OpacityMaskFilter_1_" filterUnits="userSpaceOnUse" x="0" y="0" width="33" height="33">
						<feColorMatrix  type="matrix" values="1 0 0 0 0  0 1 0 0 0  0 0 1 0 0  0 0 0 1 0"/>
					</filter>
				</defs>
				<mask maskUnits="userSpaceOnUse" x="0" y="0" width="33" height="33" id="mask-4">
					<g class="st3">
						<polygon id="path-3" class="st1" points="33,0 33,33 0,33 0,0 						"/>
					</g>
				</mask>
				<path id="Fill-1" class="st4" d="M33,16.5C33,25.6,25.6,33,16.5,33C7.4,33,0,25.6,0,16.5C0,7.4,7.4,0,16.5,0
					C25.6,0,33,7.4,33,16.5"/>
			</g>
			<path id="Fill-4" class="st1" d="M24.5,17.5l-2.9,0.4c-0.3,0-0.6-0.1-0.7-0.4l0-0.1l-1.1-2.8l-2.4,6.7c-0.1,0.4-0.6,0.6-1,0.5
				c-0.2-0.1-0.4-0.2-0.4-0.4l-2.5-5.3l-1.1,1.5l-0.1,0.1c-0.1,0.2-0.4,0.3-0.6,0.2l-3-0.5c-0.2,0-0.3-0.2-0.2-0.3
				c0-0.1,0.1-0.2,0.2-0.2l2.6-0.4l1.7-2.3c0.2-0.3,0.7-0.4,1.1-0.2c0.1,0.1,0.2,0.2,0.2,0.3l2.2,4.8l2.4-6.8c0.1-0.4,0.6-0.6,1-0.5
				c0.2,0.1,0.4,0.2,0.5,0.4l1.7,4.2l2.3,0.3c0.2,0,0.3,0.2,0.3,0.4C24.8,17.3,24.6,17.4,24.5,17.5 M24.8,9.5H8.2c-0.6,0-1,0.5-1,1
				V23c0,0.6,0.5,1,1,1h16.6c0.6,0,1-0.5,1-1V10.5C25.8,10,25.4,9.5,24.8,9.5"/>
		</g>
	</g>
</g>
</svg>
