<?xml version="1.0" encoding="utf-8"?>
<!-- Generator: Adobe Illustrator 21.0.0, SVG Export Plug-In . SVG Version: 6.00 Build 0)  -->
<svg version="1.1" id="Layer_1" xmlns="http://www.w3.org/2000/svg" xmlns:xlink="http://www.w3.org/1999/xlink" x="0px" y="0px"
	 viewBox="0 0 33 33" style="enable-background:new 0 0 33 33;" xml:space="preserve">
<style type="text/css">
	.st0{filter:url(#Adobe_OpacityMaskFilter);}
	.st1{fill:#FFFFFF;}
	.st2{mask:url(#mask-2);fill:#F99400;}
</style>
<title>SIcon/Info</title>
<desc>Created with Sketch.</desc>
<g id="MTA-Component">
	<g id="SIcon_x2F_Info">
		<g id="Page-1">
			<g id="Group-3">
				<g id="Clip-2">
				</g>
				<defs>
					<filter id="Adobe_OpacityMaskFilter" filterUnits="userSpaceOnUse" x="0" y="0" width="33" height="33">
						<feColorMatrix  type="matrix" values="1 0 0 0 0  0 1 0 0 0  0 0 1 0 0  0 0 0 1 0"/>
					</filter>
				</defs>
				<mask maskUnits="userSpaceOnUse" x="0" y="0" width="33" height="33" id="mask-2">
					<g class="st0">
						<polygon id="path-1" class="st1" points="0,0 33,0 33,33 0,33 						"/>
					</g>
				</mask>
				<path id="Fill-1" class="st2" d="M33,16.5C33,25.6,25.6,33,16.5,33C7.4,33,0,25.6,0,16.5C0,7.4,7.4,0,16.5,0
					C25.6,0,33,7.4,33,16.5"/>
			</g>
			<path id="Fill-4" class="st1" d="M16.5,13.4c-0.7,0-1.3-0.6-1.3-1.3c0-0.7,0.6-1.3,1.3-1.3c0.7,0,1.3,0.6,1.3,1.3
				C17.8,12.8,17.2,13.4,16.5,13.4L16.5,13.4z M17.8,20.4c0,0.7-0.6,1.2-1.2,1.2h-0.2c-0.7,0-1.2-0.6-1.2-1.2v-4.1
				c0-0.7,0.6-1.2,1.2-1.2h0.2c0.7,0,1.2,0.6,1.2,1.2V20.4z M16.2,6.6c-5,0.1-9.2,4.3-9.3,9.3c-0.1,5.2,3.9,9.6,9.1,9.9
				c0.3,0,0.5,0.3,0.5,0.6V28c0,0.5,0.3,0.6,0.5,0.4c0.9-1,2.8-2.9,4.7-4.2c0.1,0,0.1-0.1,0.2-0.1c0.1,0,0.2-0.1,0.2-0.1
				c2.4-1.7,4-4.6,4-7.8C26.1,10.8,21.7,6.5,16.2,6.6L16.2,6.6z"/>
		</g>
	</g>
</g>
</svg>
