<?xml version="1.0" encoding="utf-8"?>
<!-- Generator: Adobe Illustrator 21.0.0, SVG Export Plug-In . SVG Version: 6.00 Build 0)  -->
<svg version="1.1" id="Layer_1" xmlns="http://www.w3.org/2000/svg" xmlns:xlink="http://www.w3.org/1999/xlink" x="0px" y="0px"
	 viewBox="0 0 33 33" style="enable-background:new 0 0 33 33;" xml:space="preserve">
<style type="text/css">
	.st0{fill:#F90089;}
	.st1{fill:#FFFFFF;}
</style>
<title>SIcon/Notif</title>
<desc>Created with Sketch.</desc>
<g id="MTA-Component">
	<g id="SIcon_x2F_Notif">
		<g id="Page-1">
			<g id="Group-3">
				<path id="Fill-1" class="st0" d="M33,16.5C33,25.6,25.6,33,16.5,33C7.4,33,0,25.6,0,16.5C0,7.4,7.4,0,16.5,0
					C25.6,0,33,7.4,33,16.5"/>
			</g>
			<path id="Fill-4" class="st1" d="M24.3,20.8c-0.3-0.4-0.9-1-0.9-1c-1-1.2-1.4-2.2-1.4-3.6v-2.7c0-2.7-1.7-4.8-4.1-5.4
				C17.9,8,18,7.8,18,7.6c0-0.8-0.7-1.5-1.5-1.5c-0.8,0-1.5,0.7-1.5,1.5c0,0.2,0,0.3,0.1,0.5c-2.4,0.6-4.1,2.8-4.1,5.4v2.7
				c0,1.3-0.4,2.4-1.4,3.6c0,0-0.5,0.6-0.9,1c-0.3,0.4-0.4,0.6-0.4,0.9c0,0.5,0.8,1,2.3,1.3c1.6,0.4,3.6,0.6,5.8,0.6
				c0,0,0.1,0,0.1,0c2.2,0,4.3-0.2,5.9-0.6c1.5-0.4,2.3-0.9,2.3-1.3C24.7,21.5,24.6,21.2,24.3,20.8"/>
			<path id="Fill-6" class="st1" d="M16.5,24.7C16.5,24.7,16.5,24.7,16.5,24.7c-0.7,0-1.4,0-2-0.1c0.2,1,1,1.7,2,1.7
				c1,0,1.8-0.7,2-1.7C17.9,24.7,17.3,24.7,16.5,24.7"/>
		</g>
	</g>
</g>
</svg>
