<?xml version="1.0" encoding="utf-8"?>
<!-- Generator: Adobe Illustrator 21.0.0, SVG Export Plug-In . SVG Version: 6.00 Build 0)  -->
<svg version="1.1" id="Layer_1" xmlns="http://www.w3.org/2000/svg" xmlns:xlink="http://www.w3.org/1999/xlink" x="0px" y="0px"
	 viewBox="0 0 33 33" style="enable-background:new 0 0 33 33;" xml:space="preserve">
<style type="text/css">
	.st0{filter:url(#Adobe_OpacityMaskFilter);}
	.st1{fill:#FFFFFF;}
	.st2{mask:url(#mask-2);fill:#0095DC;}
</style>
<title>SIcon/Product</title>
<desc>Created with Sketch.</desc>
<g id="MTA-Component">
	<g id="SIcon_x2F_Product">
		<g id="Page-1">
			<g id="Group-3">
				<g id="Clip-2">
				</g>
				<defs>
					<filter id="Adobe_OpacityMaskFilter" filterUnits="userSpaceOnUse" x="0" y="0" width="33" height="33">
						<feColorMatrix  type="matrix" values="1 0 0 0 0  0 1 0 0 0  0 0 1 0 0  0 0 0 1 0"/>
					</filter>
				</defs>
				<mask maskUnits="userSpaceOnUse" x="0" y="0" width="33" height="33" id="mask-2">
					<g class="st0">
						<polygon id="path-1" class="st1" points="33,0 33,33 0,33 0,0 						"/>
					</g>
				</mask>
				<path id="Fill-1" class="st2" d="M33,16.5C33,25.6,25.6,33,16.5,33C7.4,33,0,25.6,0,16.5C0,7.4,7.4,0,16.5,0
					C25.6,0,33,7.4,33,16.5"/>
			</g>
			<path id="Fill-4" class="st1" d="M27,10.2l-3.9-3.1v0H20c-0.1,0-0.2,0.1-0.3,0.2c-0.3,1.4-1.6,2.5-3.1,2.5c-1.5,0-2.8-1-3.1-2.5
				c0-0.1-0.1-0.2-0.3-0.2h-3c-0.1,0-0.1,0-0.2,0.1l-3.8,3c-0.1,0.1-0.1,0.3,0,0.4l2.2,2.8c0.1,0.1,0.3,0.1,0.4,0.1l0.4-0.3l0.9-3.4
				v2.7l0,0v12.2c0,0.2,0.1,0.3,0.3,0.3h12.3c0.2,0,0.3-0.1,0.3-0.3V12.4l0,0V9.8l0.9,3.3l0.5,0.4c0.1,0.1,0.3,0.1,0.4-0.1l2.2-2.8
				C27.2,10.5,27.2,10.3,27,10.2"/>
		</g>
	</g>
</g>
</svg>
