<svg id="Layer_1" data-name="Layer 1" xmlns="http://www.w3.org/2000/svg" xmlns:xlink="http://www.w3.org/1999/xlink" viewBox="0 0 500 148.15"><defs><style>.cls-1{fill:#a6a6a6;}.cls-10,.cls-2,.cls-3{fill:#fff;}.cls-2{stroke:#fff;stroke-miterlimit:10;stroke-width:0.2px;}.cls-4{fill:url(#linear-gradient);}.cls-5{fill:url(#linear-gradient-2);}.cls-6{fill:url(#linear-gradient-3);}.cls-7{fill:url(#linear-gradient-4);}.cls-8{opacity:0.2;}.cls-10,.cls-8,.cls-9{isolation:isolate;}.cls-9{opacity:0.12;}.cls-10{opacity:0.25;}</style><linearGradient id="linear-gradient" x1="80.74" y1="-845.98" x2="18.58" y2="-908.14" gradientTransform="matrix(1, 0, 0, -1, 0, -813.72)" gradientUnits="userSpaceOnUse"><stop offset="0" stop-color="#00a0ff"/><stop offset="0.01" stop-color="#00a1ff"/><stop offset="0.26" stop-color="#00beff"/><stop offset="0.51" stop-color="#00d2ff"/><stop offset="0.76" stop-color="#00dfff"/><stop offset="1" stop-color="#00e3ff"/></linearGradient><linearGradient id="linear-gradient-2" x1="125.31" y1="-887.8" x2="35.69" y2="-887.8" gradientTransform="matrix(1, 0, 0, -1, 0, -813.72)" gradientUnits="userSpaceOnUse"><stop offset="0" stop-color="#ffe000"/><stop offset="0.41" stop-color="#ffbd00"/><stop offset="0.78" stop-color="orange"/><stop offset="1" stop-color="#ff9c00"/></linearGradient><linearGradient id="linear-gradient-3" x1="91.95" y1="-896.3" x2="7.66" y2="-980.59" gradientTransform="matrix(1, 0, 0, -1, 0, -813.72)" gradientUnits="userSpaceOnUse"><stop offset="0" stop-color="#ff3a44"/><stop offset="1" stop-color="#c31162"/></linearGradient><linearGradient id="linear-gradient-4" x1="27.03" y1="-814.37" x2="64.67" y2="-852.01" gradientTransform="matrix(1, 0, 0, -1, 0, -813.72)" gradientUnits="userSpaceOnUse"><stop offset="0" stop-color="#32a071"/><stop offset="0.07" stop-color="#2da771"/><stop offset="0.48" stop-color="#15cf74"/><stop offset="0.8" stop-color="#06e775"/><stop offset="1" stop-color="#00f076"/></linearGradient></defs><title>Googleplay</title><rect width="500" height="148.15" rx="18.52" ry="18.52"/><path class="cls-1" d="M481.48,3A15.57,15.57,0,0,1,497,18.52V129.63a15.57,15.57,0,0,1-15.56,15.56h-463A15.57,15.57,0,0,1,3,129.63V18.52A15.57,15.57,0,0,1,18.52,3h463m0-3h-463A18.57,18.57,0,0,0,0,18.52V129.63a18.57,18.57,0,0,0,18.52,18.52h463A18.57,18.57,0,0,0,500,129.63V18.52A18.57,18.57,0,0,0,481.48,0Z"/><path class="cls-2" d="M175.62,37.94a10,10,0,0,1-2.76,7.42,10.77,10.77,0,0,1-8.16,3.29A11.44,11.44,0,0,1,153.16,37,11.45,11.45,0,0,1,164.7,25.43a11.46,11.46,0,0,1,4.56.93,9.17,9.17,0,0,1,3.48,2.48l-2,2a7.5,7.5,0,0,0-6.08-2.64A8.59,8.59,0,0,0,156.07,37a8.74,8.74,0,0,0,14.84,6.39,7,7,0,0,0,1.86-4.5H164.7V36.26h10.77A9.42,9.42,0,0,1,175.62,37.94Z"/><path class="cls-2" d="M192.7,28.66H182.58v7h9.13v2.67h-9.13v7H192.7v2.73h-13V25.93h13Z"/><path class="cls-2" d="M204.74,48.15h-2.86V28.66h-6.21V25.93h15.27v2.73h-6.21Z"/><path class="cls-2" d="M222,48.15V25.93h2.85V48.15Z"/><path class="cls-2" d="M237.51,48.15h-2.86V28.66h-6.21V25.93h15.27v2.73h-6.21Z"/><path class="cls-2" d="M272.63,45.28a11.54,11.54,0,0,1-16.29,0A11.36,11.36,0,0,1,253.06,37a11.36,11.36,0,0,1,3.27-8.24,11.5,11.5,0,0,1,16.28,0A11.36,11.36,0,0,1,275.9,37,11.38,11.38,0,0,1,272.63,45.28Zm-14.19-1.86a8.54,8.54,0,0,0,12.07,0A8.7,8.7,0,0,0,273,37a8.7,8.7,0,0,0-2.47-6.38,8.54,8.54,0,0,0-12.07,0A8.71,8.71,0,0,0,256,37,8.71,8.71,0,0,0,258.44,43.42Z"/><path class="cls-2" d="M279.91,48.15V25.93h3.48l10.8,17.29h.12l-.12-4.28v-13H297V48.15h-3L282.76,30h-.12l.12,4.28V48.15Z"/><path class="cls-3" d="M252.35,80.56a15.75,15.75,0,1,0,15.81,15.75A15.53,15.53,0,0,0,252.35,80.56Zm0,25.3c-4.77,0-8.89-3.94-8.89-9.55s4.12-9.55,8.89-9.55,8.89,3.88,8.89,9.55S257.13,105.86,252.35,105.86Zm-34.49-25.3a15.75,15.75,0,1,0,15.81,15.75A15.53,15.53,0,0,0,217.86,80.56Zm0,25.3c-4.77,0-8.89-3.94-8.89-9.55s4.12-9.55,8.89-9.55,8.89,3.88,8.89,9.55S222.63,105.86,217.86,105.86Zm-41-20.47v6.68h16c-.48,3.76-1.73,6.5-3.64,8.41a16.37,16.37,0,0,1-12.35,4.89,17.78,17.78,0,0,1,0-35.56,17,17,0,0,1,12.05,4.77l4.71-4.71a23.31,23.31,0,0,0-16.77-6.74c-13.49,0-24.82,11-24.82,24.46s11.34,24.46,24.82,24.46c7.28,0,12.77-2.39,17.07-6.86s5.79-10.62,5.79-15.63a21.75,21.75,0,0,0-.36-4.18Zm167.81,5.19c-1.31-3.52-5.31-10-13.49-10s-14.86,6.38-14.86,15.75a15.41,15.41,0,0,0,15.63,15.75,15.67,15.67,0,0,0,13.13-7l-5.37-3.58a9,9,0,0,1-7.76,4.36,8,8,0,0,1-7.64-4.77l21.06-8.71Zm-21.48,5.25a8.64,8.64,0,0,1,8.23-9.19c2.75,0,5.07,1.37,5.85,3.34ZM306,111.11H313V64.81H306Zm-11.34-27h-.24a10.92,10.92,0,0,0-8.29-3.52c-7.88,0-15.1,6.92-15.1,15.81s7.22,15.69,15.1,15.69a10.74,10.74,0,0,0,8.29-3.58h.24v2.27c0,6-3.22,9.25-8.41,9.25a8.72,8.72,0,0,1-7.94-5.61l-6,2.51a15,15,0,0,0,14,9.31c8.12,0,15-4.77,15-16.41V81.52h-6.56Zm-7.94,21.78c-4.77,0-8.77-4-8.77-9.49s4-9.61,8.77-9.61,8.41,4.06,8.41,9.61S291.47,105.86,286.76,105.86Zm90.3-41.05H360.5v46.3h6.91V93.57h9.65c7.66,0,15.19-5.55,15.19-14.38S384.72,64.81,377.06,64.81Zm.18,22.32h-9.83V71.25h9.83a7.94,7.94,0,1,1,0,15.87Zm42.71-6.65c-5,0-10.19,2.2-12.33,7.09l6.14,2.56c1.31-2.56,3.75-3.4,6.31-3.4,3.57,0,7.21,2.14,7.27,6v.48a15.29,15.29,0,0,0-7.21-1.79c-6.61,0-13.34,3.63-13.34,10.42,0,6.19,5.42,10.19,11.5,10.19,4.65,0,7.21-2.08,8.82-4.53h.24V111H434V93.28C434,85.06,427.87,80.48,419.95,80.48Zm-.83,25.38c-2.26,0-5.42-1.13-5.42-3.93,0-3.57,3.93-4.94,7.33-4.94a12.31,12.31,0,0,1,6.31,1.55A8.38,8.38,0,0,1,419.11,105.85Zm39.2-24.36-7.92,20.07h-.24l-8.22-20.07h-7.45l12.33,28.06-7,15.61H447l19-43.66Zm-62.25,29.62H403V64.81h-6.91Z"/><path class="cls-4" d="M38.65,27.92a7.42,7.42,0,0,0-1.71,5.2V115a7.41,7.41,0,0,0,1.71,5.2l.27.27L84.81,74.62V73.54L38.92,27.65Z"/><path class="cls-5" d="M100.1,89.92,84.81,74.62V73.54l15.3-15.3.34.2,18.12,10.3c5.18,2.94,5.18,7.75,0,10.7l-18.12,10.3Z"/><path class="cls-6" d="M100.45,89.72,84.81,74.08,38.65,120.24c1.71,1.81,4.52,2,7.7.23l54.11-30.74"/><path class="cls-7" d="M100.45,58.43,46.35,27.69c-3.17-1.8-6-1.58-7.7.23L84.81,74.08Z"/><path class="cls-8" d="M100.11,89.38,46.35,119.92c-3,1.71-5.7,1.59-7.42,0h0l-.28.28h0l.27.27h0c1.72,1.56,4.41,1.67,7.42,0l54.11-30.74Z"/><path class="cls-9" d="M38.65,119.7a7.42,7.42,0,0,1-1.71-5.2V115a7.42,7.42,0,0,0,1.71,5.2l.28-.28Z"/><path class="cls-9" d="M118.57,78.88,100.11,89.38l.34.34,18.12-10.3c2.59-1.47,3.88-3.41,3.88-5.35h0C122.24,75.83,120.92,77.55,118.57,78.88Z"/><path class="cls-10" d="M46.35,28.23l72.23,41c2.35,1.33,3.66,3.05,3.88,4.81h0c0-1.94-1.29-3.88-3.88-5.35l-72.23-41c-5.18-2.94-9.41-.5-9.41,5.43v.54C36.94,27.74,41.17,25.29,46.35,28.23Z"/></svg>